<svg width="722" height="620" viewBox="0 0 722 620" fill="none" xmlns="http://www.w3.org/2000/svg">
<mask id="path-1-outside-1_235_18" maskUnits="userSpaceOnUse" x="0" y="0" width="722" height="620" fill="black">
<rect fill="white" width="722" height="620"/>
<path d="M95.68 262.935L112.459 276.858V279H16.426V276.858L32.848 262.935V37.311L10.357 29.457V27.315L93.538 1.96799H95.68V262.935ZM124.485 262.935L124.842 106.212L108.42 91.218V89.076H188.031V106.212L187.317 262.935L203.739 276.858V279H107.706V276.858L124.485 262.935ZM155.544 67.299C146.024 67.299 138.289 64.681 132.339 59.445C126.627 53.971 123.771 46.831 123.771 38.025C123.771 29.457 126.627 22.555 132.339 17.319C138.289 12.083 146.024 9.46498 155.544 9.46498C164.588 9.46498 171.847 12.083 177.321 17.319C183.033 22.555 185.889 29.457 185.889 38.025C185.889 46.831 183.033 53.971 177.321 59.445C171.847 64.681 164.588 67.299 155.544 67.299ZM384.287 262.935L401.066 276.858V279H305.033V276.858L321.455 262.935V150.837C321.455 135.367 315.029 127.632 302.177 127.632C293.847 127.632 286.826 131.678 281.114 139.77V262.935L297.536 276.858V279H201.503V276.858L218.282 262.935V129.417L191.507 142.626L190.079 140.841L197.576 130.131C205.43 118.945 211.737 110.496 216.497 104.784C221.257 98.834 226.374 93.955 231.848 90.147C237.322 86.339 243.034 84.435 248.984 84.435C257.552 84.435 264.216 87.41 268.976 93.36C273.974 99.31 276.473 109.544 276.473 124.062C276.473 128.822 276.354 132.63 276.116 135.486H276.473C301.463 101.214 319.432 84.078 330.38 84.078C349.182 84.078 362.986 89.909 371.792 101.571C380.598 112.995 385.001 127.989 385.001 146.553L384.287 262.935ZM218.845 351.427C205.755 351.189 193.617 350.356 182.431 348.928C171.245 347.262 159.464 344.882 147.088 341.788L146.017 343.93C160.059 348.928 170.531 356.306 177.433 366.064C184.335 375.822 187.786 386.77 187.786 398.908C187.786 415.806 182.193 429.372 171.007 439.606C160.059 449.84 148.04 457.218 134.95 461.74C122.098 466.024 112.816 468.166 107.104 468.166C88.302 468.166 71.999 463.525 58.195 454.243C55.577 457.337 54.268 461.621 54.268 467.095C54.268 483.041 66.882 491.014 92.11 491.014L144.946 491.371C163.748 491.371 178.028 495.655 187.786 504.223C197.782 512.791 202.78 523.739 202.78 537.067C202.78 550.157 198.139 563.009 188.857 575.623C179.813 588.237 167.199 598.59 151.015 606.682C135.069 614.774 117.457 618.82 98.179 618.82C76.759 618.82 57.243 615.369 39.631 608.467C22.257 601.803 9.643 591.45 1.789 577.408C0.361 574.552 14.76 559.915 44.986 533.497C34.752 529.689 26.66 523.977 20.71 516.361C14.998 508.745 12.142 500.177 12.142 490.657C12.142 488.991 14.046 486.373 17.854 482.803C21.9 478.995 28.683 472.926 38.203 464.596L53.554 451.03C45.7 444.842 39.512 437.464 34.99 428.896C30.706 420.328 28.564 411.046 28.564 401.05C28.564 383.438 34.276 369.396 45.7 358.924C57.124 348.452 69.262 341.193 82.114 337.147C94.966 333.101 103.653 331.078 108.175 331.078C112.459 331.078 119.599 331.792 129.595 333.22C142.447 335.124 153.276 336.076 162.082 336.076H218.845V351.427ZM126.739 457.456C134.355 456.98 138.163 451.744 138.163 441.748C138.163 432.704 135.188 419.614 129.238 402.478C115.91 362.732 102.225 342.859 88.183 342.859C80.091 342.859 76.045 348.095 76.045 358.567C76.045 367.373 79.02 380.582 84.97 398.194C98.774 437.702 112.697 457.456 126.739 457.456ZM75.688 539.209C66.168 539.209 57.481 537.9 49.627 535.282C47.485 538.138 46.414 541.232 46.414 544.564C46.414 552.894 51.888 559.677 62.836 564.913C73.784 570.149 86.755 573.957 101.749 576.337C116.743 578.717 130.666 579.907 143.518 579.907C157.084 579.907 168.151 578.122 176.719 574.552C185.287 570.982 189.571 566.341 189.571 560.629C189.571 548.491 173.744 541.946 142.09 540.994L75.688 539.209ZM279.688 509.935L296.467 523.858V526H200.434V523.858L216.856 509.935V284.311L194.365 276.457V274.315L277.546 248.968H279.688V509.935ZM378.541 531.355C360.215 531.355 344.031 527.071 329.989 518.503C315.947 509.697 305.118 497.916 297.502 483.16C289.886 468.404 286.078 452.339 286.078 434.965C286.078 408.785 292.147 387.96 304.285 372.49C316.661 357.02 330.108 346.31 344.626 340.36C359.144 334.172 370.211 331.078 377.827 331.078C396.153 331.078 412.337 335.481 426.379 344.287C440.659 352.855 451.607 364.636 459.223 379.63C466.839 394.386 470.647 410.689 470.647 428.539C470.647 454.481 464.459 475.068 452.083 490.3C439.945 505.532 426.498 516.242 411.742 522.43C397.224 528.38 386.157 531.355 378.541 531.355ZM410.314 513.862C416.264 511.482 419.239 504.342 419.239 492.442C419.239 477.686 414.122 455.314 403.888 425.326C385.562 373.442 368.188 347.5 351.766 347.5C342.008 347.5 337.129 355.235 337.129 370.705C337.129 386.175 342.008 408.19 351.766 436.75C360.81 462.692 369.735 482.208 378.541 495.298C387.585 508.15 396.391 514.576 404.959 514.576C406.149 514.576 407.934 514.338 410.314 513.862ZM644.729 336.076H720.413V338.218L632.948 531.355H629.021L584.753 423.898H582.254L540.842 531.355H536.915L446.237 338.218V336.076H533.345V338.218L516.923 352.855L562.262 453.529H564.404L568.688 440.32C571.306 428.658 572.615 417.829 572.615 407.833C572.615 379.273 562.381 356.068 541.913 338.218V336.076H636.518V338.218L620.096 352.855L660.08 453.529H662.222L666.506 440.32C669.6 431.752 671.147 421.875 671.147 410.689C671.147 397.837 669.005 385.104 664.721 372.49C660.437 359.638 653.773 348.214 644.729 338.218V336.076Z"/>
</mask>
<path d="M95.68 262.935L112.459 276.858V279H16.426V276.858L32.848 262.935V37.311L10.357 29.457V27.315L93.538 1.96799H95.68V262.935ZM124.485 262.935L124.842 106.212L108.42 91.218V89.076H188.031V106.212L187.317 262.935L203.739 276.858V279H107.706V276.858L124.485 262.935ZM155.544 67.299C146.024 67.299 138.289 64.681 132.339 59.445C126.627 53.971 123.771 46.831 123.771 38.025C123.771 29.457 126.627 22.555 132.339 17.319C138.289 12.083 146.024 9.46498 155.544 9.46498C164.588 9.46498 171.847 12.083 177.321 17.319C183.033 22.555 185.889 29.457 185.889 38.025C185.889 46.831 183.033 53.971 177.321 59.445C171.847 64.681 164.588 67.299 155.544 67.299ZM384.287 262.935L401.066 276.858V279H305.033V276.858L321.455 262.935V150.837C321.455 135.367 315.029 127.632 302.177 127.632C293.847 127.632 286.826 131.678 281.114 139.77V262.935L297.536 276.858V279H201.503V276.858L218.282 262.935V129.417L191.507 142.626L190.079 140.841L197.576 130.131C205.43 118.945 211.737 110.496 216.497 104.784C221.257 98.834 226.374 93.955 231.848 90.147C237.322 86.339 243.034 84.435 248.984 84.435C257.552 84.435 264.216 87.41 268.976 93.36C273.974 99.31 276.473 109.544 276.473 124.062C276.473 128.822 276.354 132.63 276.116 135.486H276.473C301.463 101.214 319.432 84.078 330.38 84.078C349.182 84.078 362.986 89.909 371.792 101.571C380.598 112.995 385.001 127.989 385.001 146.553L384.287 262.935ZM218.845 351.427C205.755 351.189 193.617 350.356 182.431 348.928C171.245 347.262 159.464 344.882 147.088 341.788L146.017 343.93C160.059 348.928 170.531 356.306 177.433 366.064C184.335 375.822 187.786 386.77 187.786 398.908C187.786 415.806 182.193 429.372 171.007 439.606C160.059 449.84 148.04 457.218 134.95 461.74C122.098 466.024 112.816 468.166 107.104 468.166C88.302 468.166 71.999 463.525 58.195 454.243C55.577 457.337 54.268 461.621 54.268 467.095C54.268 483.041 66.882 491.014 92.11 491.014L144.946 491.371C163.748 491.371 178.028 495.655 187.786 504.223C197.782 512.791 202.78 523.739 202.78 537.067C202.78 550.157 198.139 563.009 188.857 575.623C179.813 588.237 167.199 598.59 151.015 606.682C135.069 614.774 117.457 618.82 98.179 618.82C76.759 618.82 57.243 615.369 39.631 608.467C22.257 601.803 9.643 591.45 1.789 577.408C0.361 574.552 14.76 559.915 44.986 533.497C34.752 529.689 26.66 523.977 20.71 516.361C14.998 508.745 12.142 500.177 12.142 490.657C12.142 488.991 14.046 486.373 17.854 482.803C21.9 478.995 28.683 472.926 38.203 464.596L53.554 451.03C45.7 444.842 39.512 437.464 34.99 428.896C30.706 420.328 28.564 411.046 28.564 401.05C28.564 383.438 34.276 369.396 45.7 358.924C57.124 348.452 69.262 341.193 82.114 337.147C94.966 333.101 103.653 331.078 108.175 331.078C112.459 331.078 119.599 331.792 129.595 333.22C142.447 335.124 153.276 336.076 162.082 336.076H218.845V351.427ZM126.739 457.456C134.355 456.98 138.163 451.744 138.163 441.748C138.163 432.704 135.188 419.614 129.238 402.478C115.91 362.732 102.225 342.859 88.183 342.859C80.091 342.859 76.045 348.095 76.045 358.567C76.045 367.373 79.02 380.582 84.97 398.194C98.774 437.702 112.697 457.456 126.739 457.456ZM75.688 539.209C66.168 539.209 57.481 537.9 49.627 535.282C47.485 538.138 46.414 541.232 46.414 544.564C46.414 552.894 51.888 559.677 62.836 564.913C73.784 570.149 86.755 573.957 101.749 576.337C116.743 578.717 130.666 579.907 143.518 579.907C157.084 579.907 168.151 578.122 176.719 574.552C185.287 570.982 189.571 566.341 189.571 560.629C189.571 548.491 173.744 541.946 142.09 540.994L75.688 539.209ZM279.688 509.935L296.467 523.858V526H200.434V523.858L216.856 509.935V284.311L194.365 276.457V274.315L277.546 248.968H279.688V509.935ZM378.541 531.355C360.215 531.355 344.031 527.071 329.989 518.503C315.947 509.697 305.118 497.916 297.502 483.16C289.886 468.404 286.078 452.339 286.078 434.965C286.078 408.785 292.147 387.96 304.285 372.49C316.661 357.02 330.108 346.31 344.626 340.36C359.144 334.172 370.211 331.078 377.827 331.078C396.153 331.078 412.337 335.481 426.379 344.287C440.659 352.855 451.607 364.636 459.223 379.63C466.839 394.386 470.647 410.689 470.647 428.539C470.647 454.481 464.459 475.068 452.083 490.3C439.945 505.532 426.498 516.242 411.742 522.43C397.224 528.38 386.157 531.355 378.541 531.355ZM410.314 513.862C416.264 511.482 419.239 504.342 419.239 492.442C419.239 477.686 414.122 455.314 403.888 425.326C385.562 373.442 368.188 347.5 351.766 347.5C342.008 347.5 337.129 355.235 337.129 370.705C337.129 386.175 342.008 408.19 351.766 436.75C360.81 462.692 369.735 482.208 378.541 495.298C387.585 508.15 396.391 514.576 404.959 514.576C406.149 514.576 407.934 514.338 410.314 513.862ZM644.729 336.076H720.413V338.218L632.948 531.355H629.021L584.753 423.898H582.254L540.842 531.355H536.915L446.237 338.218V336.076H533.345V338.218L516.923 352.855L562.262 453.529H564.404L568.688 440.32C571.306 428.658 572.615 417.829 572.615 407.833C572.615 379.273 562.381 356.068 541.913 338.218V336.076H636.518V338.218L620.096 352.855L660.08 453.529H662.222L666.506 440.32C669.6 431.752 671.147 421.875 671.147 410.689C671.147 397.837 669.005 385.104 664.721 372.49C660.437 359.638 653.773 348.214 644.729 338.218V336.076Z" fill="url(#paint0_linear_235_18)"/>
<path d="M95.68 262.935H94.68V263.405L95.0414 263.705L95.68 262.935ZM112.459 276.858H113.459V276.388L113.098 276.088L112.459 276.858ZM112.459 279V280H113.459V279H112.459ZM16.426 279H15.426V280H16.426V279ZM16.426 276.858L15.7793 276.095L15.426 276.395V276.858H16.426ZM32.848 262.935L33.4947 263.698L33.848 263.398V262.935H32.848ZM32.848 37.311H33.848V36.601L33.1777 36.3669L32.848 37.311ZM10.357 29.457H9.357V30.167L10.0273 30.4011L10.357 29.457ZM10.357 27.315L10.0655 26.3584L9.357 26.5743V27.315H10.357ZM93.538 1.96799V0.967991H93.389L93.2465 1.01142L93.538 1.96799ZM95.68 1.96799H96.68V0.967991H95.68V1.96799ZM95.68 262.935L95.0414 263.705L111.82 277.628L112.459 276.858L113.098 276.088L96.3186 262.165L95.68 262.935ZM112.459 276.858H111.459V279H112.459H113.459V276.858H112.459ZM112.459 279V278H16.426V279V280H112.459V279ZM16.426 279H17.426V276.858H16.426H15.426V279H16.426ZM16.426 276.858L17.0727 277.621L33.4947 263.698L32.848 262.935L32.2013 262.172L15.7793 276.095L16.426 276.858ZM32.848 262.935H33.848V37.311H32.848H31.848V262.935H32.848ZM32.848 37.311L33.1777 36.3669L10.6867 28.5129L10.357 29.457L10.0273 30.4011L32.5183 38.2551L32.848 37.311ZM10.357 29.457H11.357V27.315H10.357H9.357V29.457H10.357ZM10.357 27.315L10.6485 28.2716L93.8295 2.92456L93.538 1.96799L93.2465 1.01142L10.0655 26.3584L10.357 27.315ZM93.538 1.96799V2.96799H95.68V1.96799V0.967991H93.538V1.96799ZM95.68 1.96799H94.68V262.935H95.68H96.68V1.96799H95.68ZM124.485 262.935L125.124 263.705L125.484 263.406L125.485 262.937L124.485 262.935ZM124.842 106.212L125.842 106.214L125.843 105.772L125.517 105.474L124.842 106.212ZM108.42 91.218H107.42V91.6591L107.746 91.9565L108.42 91.218ZM108.42 89.076V88.076H107.42V89.076H108.42ZM188.031 89.076H189.031V88.076H188.031V89.076ZM188.031 106.212L189.031 106.217V106.212H188.031ZM187.317 262.935L186.317 262.93L186.315 263.396L186.671 263.698L187.317 262.935ZM203.739 276.858H204.739V276.395L204.386 276.095L203.739 276.858ZM203.739 279V280H204.739V279H203.739ZM107.706 279H106.706V280H107.706V279ZM107.706 276.858L107.068 276.088L106.706 276.388V276.858H107.706ZM132.339 59.445L131.648 60.167L131.663 60.1817L131.679 60.1957L132.339 59.445ZM132.339 17.319L131.679 16.5683L131.671 16.575L131.664 16.5818L132.339 17.319ZM177.321 17.319L176.63 18.0416L176.638 18.049L176.646 18.0561L177.321 17.319ZM177.321 59.445L178.013 60.1676L178.013 60.167L177.321 59.445ZM124.485 262.935L125.485 262.937L125.842 106.214L124.842 106.212L123.842 106.21L123.485 262.933L124.485 262.935ZM124.842 106.212L125.517 105.474L109.095 90.4795L108.42 91.218L107.746 91.9565L124.168 106.95L124.842 106.212ZM108.42 91.218H109.42V89.076H108.42H107.42V91.218H108.42ZM108.42 89.076V90.076H188.031V89.076V88.076H108.42V89.076ZM188.031 89.076H187.031V106.212H188.031H189.031V89.076H188.031ZM188.031 106.212L187.031 106.207L186.317 262.93L187.317 262.935L188.317 262.94L189.031 106.217L188.031 106.212ZM187.317 262.935L186.671 263.698L203.093 277.621L203.739 276.858L204.386 276.095L187.964 262.172L187.317 262.935ZM203.739 276.858H202.739V279H203.739H204.739V276.858H203.739ZM203.739 279V278H107.706V279V280H203.739V279ZM107.706 279H108.706V276.858H107.706H106.706V279H107.706ZM107.706 276.858L108.345 277.628L125.124 263.705L124.485 262.935L123.847 262.165L107.068 276.088L107.706 276.858ZM155.544 67.299V66.299C146.216 66.299 138.732 63.7386 133 58.6943L132.339 59.445L131.679 60.1957C137.847 65.6233 145.833 68.299 155.544 68.299V67.299ZM132.339 59.445L133.031 58.723C127.539 53.4599 124.771 46.5924 124.771 38.025H123.771H122.771C122.771 47.0696 125.715 54.4821 131.648 60.167L132.339 59.445ZM123.771 38.025H124.771C124.771 29.7043 127.533 23.0815 133.015 18.0561L132.339 17.319L131.664 16.5818C125.722 22.0284 122.771 29.2097 122.771 38.025H123.771ZM132.339 17.319L133 18.0697C138.732 13.0253 146.216 10.465 155.544 10.465V9.46498V8.46498C145.833 8.46498 137.847 11.1406 131.679 16.5683L132.339 17.319ZM155.544 9.46498V10.465C164.384 10.465 171.377 13.0173 176.63 18.0416L177.321 17.319L178.013 16.5963C172.317 11.1487 164.793 8.46498 155.544 8.46498V9.46498ZM177.321 17.319L176.646 18.0561C182.128 23.0815 184.889 29.7043 184.889 38.025H185.889H186.889C186.889 29.2097 183.939 22.0284 177.997 16.5818L177.321 17.319ZM185.889 38.025H184.889C184.889 46.5924 182.121 53.4599 176.63 58.723L177.321 59.445L178.013 60.167C183.945 54.4821 186.889 47.0696 186.889 38.025H185.889ZM177.321 59.445L176.63 58.7224C171.378 63.7467 164.384 66.299 155.544 66.299V67.299V68.299C164.793 68.299 172.317 65.6153 178.013 60.1676L177.321 59.445ZM384.287 262.935L383.287 262.929L383.284 263.402L383.648 263.705L384.287 262.935ZM401.066 276.858H402.066V276.388L401.704 276.088L401.066 276.858ZM401.066 279V280H402.066V279H401.066ZM305.033 279H304.033V280H305.033V279ZM305.033 276.858L304.386 276.095L304.033 276.395V276.858H305.033ZM321.455 262.935L322.101 263.698L322.455 263.398V262.935H321.455ZM281.114 139.77L280.297 139.193L280.114 139.453V139.77H281.114ZM281.114 262.935H280.114V263.398L280.467 263.698L281.114 262.935ZM297.536 276.858H298.536V276.395L298.182 276.095L297.536 276.858ZM297.536 279V280H298.536V279H297.536ZM201.503 279H200.503V280H201.503V279ZM201.503 276.858L200.864 276.088L200.503 276.388V276.858H201.503ZM218.282 262.935L218.92 263.705L219.282 263.405V262.935H218.282ZM218.282 129.417H219.282V127.809L217.839 128.52L218.282 129.417ZM191.507 142.626L190.726 143.251L191.228 143.879L191.949 143.523L191.507 142.626ZM190.079 140.841L189.259 140.268L188.83 140.881L189.298 141.466L190.079 140.841ZM197.576 130.131L196.757 129.556L196.756 129.558L197.576 130.131ZM216.497 104.784L217.265 105.424L217.271 105.416L217.277 105.409L216.497 104.784ZM231.848 90.147L231.277 89.3261V89.3261L231.848 90.147ZM268.976 93.36L268.195 93.9847L268.202 93.994L268.21 94.0032L268.976 93.36ZM276.116 135.486L275.119 135.403L275.029 136.486H276.116V135.486ZM276.473 135.486V136.486H276.981L277.281 136.075L276.473 135.486ZM371.792 101.571L370.994 102.174L371 102.182L371.792 101.571ZM385.001 146.553L386.001 146.559V146.553H385.001ZM384.287 262.935L383.648 263.705L400.427 277.628L401.066 276.858L401.704 276.088L384.925 262.165L384.287 262.935ZM401.066 276.858H400.066V279H401.066H402.066V276.858H401.066ZM401.066 279V278H305.033V279V280H401.066V279ZM305.033 279H306.033V276.858H305.033H304.033V279H305.033ZM305.033 276.858L305.679 277.621L322.101 263.698L321.455 262.935L320.808 262.172L304.386 276.095L305.033 276.858ZM321.455 262.935H322.455V150.837H321.455H320.455V262.935H321.455ZM321.455 150.837H322.455C322.455 142.988 320.828 136.916 317.404 132.794C313.951 128.637 308.811 126.632 302.177 126.632V127.632V128.632C308.395 128.632 312.893 130.494 315.866 134.072C318.868 137.686 320.455 143.216 320.455 150.837H321.455ZM302.177 127.632V126.632C293.457 126.632 286.156 130.893 280.297 139.193L281.114 139.77L281.931 140.347C287.496 132.463 294.236 128.632 302.177 128.632V127.632ZM281.114 139.77H280.114V262.935H281.114H282.114V139.77H281.114ZM281.114 262.935L280.467 263.698L296.889 277.621L297.536 276.858L298.182 276.095L281.76 262.172L281.114 262.935ZM297.536 276.858H296.536V279H297.536H298.536V276.858H297.536ZM297.536 279V278H201.503V279V280H297.536V279ZM201.503 279H202.503V276.858H201.503H200.503V279H201.503ZM201.503 276.858L202.141 277.628L218.92 263.705L218.282 262.935L217.643 262.165L200.864 276.088L201.503 276.858ZM218.282 262.935H219.282V129.417H218.282H217.282V262.935H218.282ZM218.282 129.417L217.839 128.52L191.064 141.729L191.507 142.626L191.949 143.523L218.724 130.314L218.282 129.417ZM191.507 142.626L192.287 142.001L190.859 140.216L190.079 140.841L189.298 141.466L190.726 143.251L191.507 142.626ZM190.079 140.841L190.898 141.414L198.395 130.704L197.576 130.131L196.756 129.558L189.259 140.268L190.079 140.841ZM197.576 130.131L198.394 130.706C206.243 119.527 212.531 111.104 217.265 105.424L216.497 104.784L215.728 104.144C210.942 109.888 204.616 118.363 196.757 129.556L197.576 130.131ZM216.497 104.784L217.277 105.409C221.986 99.5233 227.034 94.7137 232.419 90.9679L231.848 90.147L231.277 89.3261C225.713 93.1962 220.527 98.1446 215.716 104.159L216.497 104.784ZM231.848 90.147L232.419 90.9679C237.746 87.2618 243.262 85.435 248.984 85.435V84.435V83.435C242.805 83.435 236.897 85.4161 231.277 89.3261L231.848 90.147ZM248.984 84.435V85.435C257.291 85.435 263.65 88.3035 268.195 93.9847L268.976 93.36L269.756 92.7353C264.781 86.5165 257.813 83.435 248.984 83.435V84.435ZM268.976 93.36L268.21 94.0032C272.972 99.6719 275.473 109.6 275.473 124.062H276.473H277.473C277.473 109.488 274.976 98.9481 269.741 92.7168L268.976 93.36ZM276.473 124.062H275.473C275.473 128.81 275.354 132.587 275.119 135.403L276.116 135.486L277.112 135.569C277.353 132.673 277.473 128.834 277.473 124.062H276.473ZM276.116 135.486V136.486H276.473V135.486V134.486H276.116V135.486ZM276.473 135.486L277.281 136.075C289.761 118.959 300.461 106.162 309.382 97.6537C313.843 93.3996 317.835 90.2412 321.362 88.1513C324.898 86.0557 327.893 85.078 330.38 85.078V84.078V83.078C327.392 83.078 324.035 84.2422 320.342 86.4307C316.64 88.6248 312.525 91.8924 308.002 96.2063C298.954 104.834 288.174 117.741 275.665 134.897L276.473 135.486ZM330.38 84.078V85.078C348.967 85.078 362.429 90.8313 370.994 102.174L371.792 101.571L372.59 100.968C363.542 88.9867 349.397 83.078 330.38 83.078V84.078ZM371.792 101.571L371 102.182C379.636 113.386 384.001 128.146 384.001 146.553H385.001H386.001C386.001 127.832 381.559 112.604 372.584 100.96L371.792 101.571ZM385.001 146.553L384.001 146.547L383.287 262.929L384.287 262.935L385.287 262.941L386.001 146.559L385.001 146.553ZM218.845 351.427L218.827 352.427L219.845 352.445V351.427H218.845ZM182.431 348.928L182.284 349.917L182.294 349.919L182.304 349.92L182.431 348.928ZM147.088 341.788L147.331 340.818L146.552 340.623L146.194 341.341L147.088 341.788ZM146.017 343.93L145.123 343.483L144.617 344.493L145.682 344.872L146.017 343.93ZM177.433 366.064L176.617 366.641L177.433 366.064ZM171.007 439.606L170.332 438.868L170.324 438.875L171.007 439.606ZM134.95 461.74L135.266 462.689L135.277 462.685L134.95 461.74ZM58.195 454.243L58.753 453.413L58.01 452.914L57.4316 453.597L58.195 454.243ZM92.11 491.014L92.1168 490.014H92.11V491.014ZM144.946 491.371L144.939 492.371H144.946V491.371ZM187.786 504.223L187.126 504.974L187.135 504.982L187.786 504.223ZM188.857 575.623L188.052 575.03L188.044 575.04L188.857 575.623ZM151.015 606.682L150.568 605.788L150.562 605.79L151.015 606.682ZM39.631 608.467L39.9959 607.536L39.9891 607.533L39.631 608.467ZM1.789 577.408L0.894572 577.855L0.904932 577.876L0.916242 577.896L1.789 577.408ZM44.986 533.497L45.6441 534.25L46.9081 533.145L45.3347 532.56L44.986 533.497ZM20.71 516.361L19.91 516.961L19.9159 516.969L19.922 516.977L20.71 516.361ZM17.854 482.803L18.5379 483.533L18.5394 483.531L17.854 482.803ZM38.203 464.596L38.8615 465.349L38.8652 465.345L38.203 464.596ZM53.554 451.03L54.2162 451.779L55.114 450.986L54.1729 450.245L53.554 451.03ZM34.99 428.896L34.0956 429.343L34.1005 429.353L34.1056 429.363L34.99 428.896ZM82.114 337.147L81.8137 336.193H81.8137L82.114 337.147ZM129.595 333.22L129.742 332.231L129.736 332.23L129.595 333.22ZM218.845 336.076H219.845V335.076H218.845V336.076ZM126.739 457.456V458.456H126.77L126.801 458.454L126.739 457.456ZM129.238 402.478L128.29 402.796L128.293 402.806L129.238 402.478ZM84.97 398.194L84.0226 398.514L84.026 398.524L84.97 398.194ZM75.688 539.209L75.7149 538.209L75.7014 538.209H75.688V539.209ZM49.627 535.282L49.9432 534.333L49.2595 534.105L48.827 534.682L49.627 535.282ZM62.836 564.913L63.2675 564.011L62.836 564.913ZM101.749 576.337L101.906 575.349L101.749 576.337ZM176.719 574.552L176.334 573.629L176.719 574.552ZM142.09 540.994L142.12 539.994L142.117 539.994L142.09 540.994ZM218.845 351.427L218.863 350.427C205.804 350.19 193.702 349.359 182.558 347.936L182.431 348.928L182.304 349.92C193.532 351.353 205.706 352.188 218.827 352.427L218.845 351.427ZM182.431 348.928L182.578 347.939C171.428 346.278 159.679 343.905 147.331 340.818L147.088 341.788L146.845 342.758C159.249 345.859 171.062 348.246 182.284 349.917L182.431 348.928ZM147.088 341.788L146.194 341.341L145.123 343.483L146.017 343.93L146.911 344.377L147.982 342.235L147.088 341.788ZM146.017 343.93L145.682 344.872C159.578 349.818 169.86 357.089 176.617 366.641L177.433 366.064L178.249 365.487C171.202 355.523 160.54 348.038 146.352 342.988L146.017 343.93ZM177.433 366.064L176.617 366.641C183.397 376.228 186.786 386.973 186.786 398.908H187.786H188.786C188.786 386.567 185.273 375.416 178.249 365.487L177.433 366.064ZM187.786 398.908H186.786C186.786 415.561 181.286 428.846 170.332 438.868L171.007 439.606L171.682 440.344C183.1 429.898 188.786 416.051 188.786 398.908H187.786ZM171.007 439.606L170.324 438.875C159.47 449.022 147.57 456.322 134.623 460.795L134.95 461.74L135.277 462.685C148.51 458.114 160.648 450.658 171.69 440.337L171.007 439.606ZM134.95 461.74L134.634 460.791C121.782 465.075 112.638 467.166 107.104 467.166V468.166V469.166C112.994 469.166 122.414 466.973 135.266 462.689L134.95 461.74ZM107.104 468.166V467.166C88.474 467.166 72.3711 462.57 58.753 453.413L58.195 454.243L57.637 455.073C71.6269 464.48 88.13 469.166 107.104 469.166V468.166ZM58.195 454.243L57.4316 453.597C54.6145 456.926 53.268 461.468 53.268 467.095H54.268H55.268C55.268 461.774 56.5395 457.748 58.9584 454.889L58.195 454.243ZM54.268 467.095H53.268C53.268 475.383 56.5742 481.695 63.1942 485.88C69.7369 490.015 79.4229 492.014 92.11 492.014V491.014V490.014C79.5691 490.014 70.3341 488.026 64.2628 484.189C58.2688 480.4 55.268 474.753 55.268 467.095H54.268ZM92.11 491.014L92.1032 492.014L144.939 492.371L144.946 491.371L144.953 490.371L92.1168 490.014L92.11 491.014ZM144.946 491.371V492.371C163.612 492.371 177.618 496.625 187.126 504.974L187.786 504.223L188.446 503.472C178.438 494.685 163.884 490.371 144.946 490.371V491.371ZM187.786 504.223L187.135 504.982C196.906 513.358 201.78 524.027 201.78 537.067H202.78H203.78C203.78 523.451 198.658 512.224 188.437 503.464L187.786 504.223ZM202.78 537.067H201.78C201.78 549.904 197.233 562.553 188.052 575.03L188.857 575.623L189.662 576.216C199.045 563.465 203.78 550.41 203.78 537.067H202.78ZM188.857 575.623L188.044 575.04C179.11 587.502 166.631 597.756 150.568 605.788L151.015 606.682L151.462 607.576C167.767 599.424 180.516 588.972 189.67 576.206L188.857 575.623ZM151.015 606.682L150.562 605.79C134.767 613.806 117.312 617.82 98.179 617.82V618.82V619.82C117.602 619.82 135.371 615.742 151.468 607.574L151.015 606.682ZM98.179 618.82V617.82C76.8675 617.82 57.4773 614.387 39.9959 607.536L39.631 608.467L39.2661 609.398C57.0087 616.351 76.6506 619.82 98.179 619.82V618.82ZM39.631 608.467L39.9891 607.533C22.7974 600.939 10.3841 590.726 2.66176 576.92L1.789 577.408L0.916242 577.896C8.90193 592.174 21.7166 602.667 39.2729 609.401L39.631 608.467ZM1.789 577.408L2.68343 576.961C2.72121 577.036 2.61025 576.877 2.91209 576.184C3.18388 575.561 3.69594 574.722 4.48883 573.653C6.06815 571.523 8.6398 568.639 12.2301 564.99C19.4025 557.699 30.5358 547.455 45.6441 534.25L44.986 533.497L44.3279 532.744C29.2102 545.957 18.031 556.241 10.8044 563.587C7.1952 567.256 4.54572 570.218 2.8823 572.461C2.05381 573.579 1.43909 574.558 1.07869 575.385C0.748343 576.143 0.49979 577.066 0.894572 577.855L1.789 577.408ZM44.986 533.497L45.3347 532.56C35.251 528.808 27.3199 523.197 21.498 515.745L20.71 516.361L19.922 516.977C26.0001 524.757 34.253 530.57 44.6373 534.434L44.986 533.497ZM20.71 516.361L21.51 515.761C15.9278 508.318 13.142 499.961 13.142 490.657H12.142H11.142C11.142 500.393 14.0682 509.172 19.91 516.961L20.71 516.361ZM12.142 490.657H13.142C13.142 490.157 13.4519 489.307 14.3787 488.032C15.2782 486.795 16.6557 485.297 18.5379 483.533L17.854 482.803L17.1701 482.073C15.2443 483.879 13.7658 485.475 12.7613 486.856C11.7841 488.199 11.142 489.491 11.142 490.657H12.142ZM17.854 482.803L18.5394 483.531C22.571 479.737 29.3421 473.678 38.8615 465.349L38.203 464.596L37.5445 463.843C28.0239 472.174 21.229 478.253 17.1686 482.075L17.854 482.803ZM38.203 464.596L38.8652 465.345L54.2162 451.779L53.554 451.03L52.8918 450.281L37.5408 463.847L38.203 464.596ZM53.554 451.03L54.1729 450.245C46.4251 444.14 40.329 436.87 35.8744 428.429L34.99 428.896L34.1056 429.363C38.695 438.058 44.9749 445.544 52.9351 451.815L53.554 451.03ZM34.99 428.896L35.8844 428.449C31.6729 420.026 29.564 410.898 29.564 401.05H28.564H27.564C27.564 411.194 29.7391 420.63 34.0956 429.343L34.99 428.896ZM28.564 401.05H29.564C29.564 383.676 35.1875 369.917 46.3757 359.661L45.7 358.924L45.0243 358.187C33.3645 368.875 27.564 383.2 27.564 401.05H28.564ZM45.7 358.924L46.3757 359.661C57.7081 349.273 69.7213 342.097 82.4143 338.101L82.114 337.147L81.8137 336.193C68.8027 340.289 56.5399 347.631 45.0243 358.187L45.7 358.924ZM82.114 337.147L82.4143 338.101C88.8269 336.082 94.1853 334.573 98.4951 333.569C102.821 332.562 106.033 332.078 108.175 332.078V331.078V330.078C105.795 330.078 102.402 330.606 98.0414 331.621C93.6642 332.641 88.2531 334.166 81.8137 336.193L82.114 337.147ZM108.175 331.078V332.078C112.381 332.078 119.459 332.782 129.454 334.21L129.595 333.22L129.736 332.23C119.739 330.802 112.537 330.078 108.175 330.078V331.078ZM129.595 333.22L129.448 334.209C142.328 336.117 153.21 337.076 162.082 337.076V336.076V335.076C153.342 335.076 142.566 334.131 129.742 332.231L129.595 333.22ZM162.082 336.076V337.076H218.845V336.076V335.076H162.082V336.076ZM218.845 336.076H217.845V351.427H218.845H219.845V336.076H218.845ZM126.739 457.456L126.801 458.454C130.848 458.201 134.004 456.663 136.116 453.76C138.195 450.901 139.163 446.85 139.163 441.748H138.163H137.163C137.163 446.642 136.227 450.207 134.498 452.584C132.802 454.917 130.246 456.235 126.677 456.458L126.739 457.456ZM138.163 441.748H139.163C139.163 432.529 136.14 419.307 130.183 402.15L129.238 402.478L128.293 402.806C134.236 419.921 137.163 432.879 137.163 441.748H138.163ZM129.238 402.478L130.186 402.16C123.511 382.253 116.722 367.246 109.802 357.197C102.906 347.182 95.713 341.859 88.183 341.859V342.859V343.859C94.695 343.859 101.366 348.472 108.155 358.331C114.919 368.154 121.637 382.957 128.29 402.796L129.238 402.478ZM88.183 342.859V341.859C83.904 341.859 80.543 343.257 78.2882 346.175C76.0712 349.044 75.045 353.23 75.045 358.567H76.045H77.045C77.045 353.432 78.0418 349.764 79.8708 347.397C81.662 345.079 84.37 343.859 88.183 343.859V342.859ZM76.045 358.567H75.045C75.045 367.547 78.0676 380.887 84.0226 398.514L84.97 398.194L85.9174 397.874C79.9724 380.277 77.045 367.199 77.045 358.567H76.045ZM84.97 398.194L84.026 398.524C90.9397 418.311 97.9078 433.228 104.948 443.217C111.963 453.17 119.215 458.456 126.739 458.456V457.456V456.456C120.221 456.456 113.49 451.865 106.583 442.064C99.6997 432.299 92.8043 417.585 85.914 397.864L84.97 398.194ZM75.688 539.209V538.209C66.2597 538.209 57.6813 536.913 49.9432 534.333L49.627 535.282L49.3108 536.231C57.2807 538.887 66.0763 540.209 75.688 540.209V539.209ZM49.627 535.282L48.827 534.682C46.565 537.698 45.414 541 45.414 544.564H46.414H47.414C47.414 541.464 48.405 538.578 50.427 535.882L49.627 535.282ZM46.414 544.564H45.414C45.414 553.446 51.29 560.499 62.4045 565.815L62.836 564.913L63.2675 564.011C52.486 558.855 47.414 552.342 47.414 544.564H46.414ZM62.836 564.913L62.4045 565.815C73.4581 571.102 86.5258 574.933 101.592 577.325L101.749 576.337L101.906 575.349C86.9842 572.981 74.1099 569.196 63.2675 564.011L62.836 564.913ZM101.749 576.337L101.592 577.325C116.629 579.711 130.605 580.907 143.518 580.907V579.907V578.907C130.727 578.907 116.857 577.723 101.906 575.349L101.749 576.337ZM143.518 579.907V580.907C157.16 580.907 168.371 579.114 177.104 575.475L176.719 574.552L176.334 573.629C167.931 577.13 157.008 578.907 143.518 578.907V579.907ZM176.719 574.552L177.104 575.475C185.785 571.858 190.571 566.966 190.571 560.629H189.571H188.571C188.571 565.716 184.789 570.106 176.334 573.629L176.719 574.552ZM189.571 560.629H190.571C190.571 553.989 186.188 549.044 178.083 545.693C170 542.35 157.983 540.472 142.12 539.994L142.09 540.994L142.06 541.994C157.851 542.468 169.575 544.339 177.319 547.541C185.04 550.734 188.571 555.131 188.571 560.629H189.571ZM142.09 540.994L142.117 539.994L75.7149 538.209L75.688 539.209L75.6611 540.209L142.063 541.994L142.09 540.994ZM279.688 509.935H278.688V510.405L279.05 510.705L279.688 509.935ZM296.467 523.858H297.467V523.388L297.106 523.088L296.467 523.858ZM296.467 526V527H297.467V526H296.467ZM200.434 526H199.434V527H200.434V526ZM200.434 523.858L199.788 523.095L199.434 523.395V523.858H200.434ZM216.856 509.935L217.503 510.698L217.856 510.398V509.935H216.856ZM216.856 284.311H217.856V283.601L217.186 283.367L216.856 284.311ZM194.365 276.457H193.365V277.167L194.036 277.401L194.365 276.457ZM194.365 274.315L194.074 273.358L193.365 273.574V274.315H194.365ZM277.546 248.968V247.968H277.397L277.255 248.011L277.546 248.968ZM279.688 248.968H280.688V247.968H279.688V248.968ZM279.688 509.935L279.05 510.705L295.829 524.628L296.467 523.858L297.106 523.088L280.327 509.165L279.688 509.935ZM296.467 523.858H295.467V526H296.467H297.467V523.858H296.467ZM296.467 526V525H200.434V526V527H296.467V526ZM200.434 526H201.434V523.858H200.434H199.434V526H200.434ZM200.434 523.858L201.081 524.621L217.503 510.698L216.856 509.935L216.21 509.172L199.788 523.095L200.434 523.858ZM216.856 509.935H217.856V284.311H216.856H215.856V509.935H216.856ZM216.856 284.311L217.186 283.367L194.695 275.513L194.365 276.457L194.036 277.401L216.527 285.255L216.856 284.311ZM194.365 276.457H195.365V274.315H194.365H193.365V276.457H194.365ZM194.365 274.315L194.657 275.272L277.838 249.925L277.546 248.968L277.255 248.011L194.074 273.358L194.365 274.315ZM277.546 248.968V249.968H279.688V248.968V247.968H277.546V248.968ZM279.688 248.968H278.688V509.935H279.688H280.688V248.968H279.688ZM329.989 518.503L329.458 519.35L329.468 519.357L329.989 518.503ZM297.502 483.16L296.613 483.619L297.502 483.16ZM304.285 372.49L303.504 371.865L303.498 371.873L304.285 372.49ZM344.626 340.36L345.005 341.285L345.018 341.28L344.626 340.36ZM426.379 344.287L425.848 345.134L425.856 345.139L425.865 345.145L426.379 344.287ZM459.223 379.63L458.332 380.083L458.335 380.089L459.223 379.63ZM452.083 490.3L451.307 489.669L451.301 489.677L452.083 490.3ZM411.742 522.43L412.121 523.355L412.129 523.352L411.742 522.43ZM410.314 513.862L410.51 514.843L410.6 514.825L410.686 514.79L410.314 513.862ZM403.888 425.326L404.835 425.003L404.831 424.993L403.888 425.326ZM351.766 436.75L350.82 437.073L350.822 437.079L351.766 436.75ZM378.541 495.298L377.711 495.856L377.717 495.865L377.723 495.874L378.541 495.298ZM378.541 531.355V530.355C360.377 530.355 344.378 526.111 330.51 517.649L329.989 518.503L329.468 519.357C343.685 528.031 360.053 532.355 378.541 532.355V531.355ZM329.989 518.503L330.52 517.656C316.63 508.945 305.925 497.298 298.391 482.701L297.502 483.16L296.613 483.619C304.311 498.534 315.264 510.449 329.458 519.35L329.989 518.503ZM297.502 483.16L298.391 482.701C290.851 468.094 287.078 452.187 287.078 434.965H286.078H285.078C285.078 452.491 288.921 468.714 296.613 483.619L297.502 483.16ZM286.078 434.965H287.078C287.078 408.935 293.112 388.351 305.072 373.107L304.285 372.49L303.498 371.873C291.183 387.569 285.078 408.635 285.078 434.965H286.078ZM304.285 372.49L305.066 373.115C317.363 357.743 330.681 347.156 345.005 341.285L344.626 340.36L344.247 339.435C329.536 345.464 315.959 356.297 303.504 371.865L304.285 372.49ZM344.626 340.36L345.018 341.28C359.517 335.1 370.426 332.078 377.827 332.078V331.078V330.078C369.996 330.078 358.771 333.244 344.234 339.44L344.626 340.36ZM377.827 331.078V332.078C395.986 332.078 411.982 336.438 425.848 345.134L426.379 344.287L426.91 343.44C412.693 334.524 396.321 330.078 377.827 330.078V331.078ZM426.379 344.287L425.865 345.145C439.982 353.615 450.8 365.255 458.332 380.083L459.223 379.63L460.115 379.177C452.414 364.017 441.337 352.095 426.894 343.43L426.379 344.287ZM459.223 379.63L458.335 380.089C465.872 394.692 469.647 410.836 469.647 428.539H470.647H471.647C471.647 410.542 467.806 394.08 460.112 379.171L459.223 379.63ZM470.647 428.539H469.647C469.647 454.326 463.497 474.666 451.307 489.669L452.083 490.3L452.859 490.931C465.421 475.47 471.647 454.636 471.647 428.539H470.647ZM452.083 490.3L451.301 489.677C439.245 504.806 425.926 515.397 411.355 521.508L411.742 522.43L412.129 523.352C427.07 517.087 440.645 506.258 452.865 490.923L452.083 490.3ZM411.742 522.43L411.363 521.505C396.865 527.447 385.951 530.355 378.541 530.355V531.355V532.355C386.364 532.355 397.583 529.313 412.121 523.355L411.742 522.43ZM410.314 513.862L410.686 514.79C417.269 512.157 420.239 504.383 420.239 492.442H419.239H418.239C418.239 504.301 415.26 510.807 409.943 512.934L410.314 513.862ZM419.239 492.442H420.239C420.239 477.509 415.073 455.004 404.835 425.003L403.888 425.326L402.942 425.649C413.171 455.624 418.239 477.863 418.239 492.442H419.239ZM403.888 425.326L404.831 424.993C395.658 399.022 386.7 379.474 377.944 366.4C369.23 353.389 360.52 346.5 351.766 346.5V347.5V348.5C359.434 348.5 367.622 354.582 376.282 367.513C384.9 380.381 393.792 399.746 402.945 425.659L403.888 425.326ZM351.766 347.5V346.5C346.571 346.5 342.58 348.587 339.943 352.768C337.355 356.871 336.129 362.897 336.129 370.705H337.129H338.129C338.129 363.043 339.343 357.467 341.634 353.835C343.876 350.28 347.203 348.5 351.766 348.5V347.5ZM337.129 370.705H336.129C336.129 386.346 341.053 408.489 350.82 437.073L351.766 436.75L352.712 436.427C342.963 407.891 338.129 386.004 338.129 370.705H337.129ZM351.766 436.75L350.822 437.079C359.877 463.052 368.835 482.661 377.711 495.856L378.541 495.298L379.371 494.74C370.635 481.755 361.744 462.332 352.71 436.421L351.766 436.75ZM378.541 495.298L377.723 495.874C386.805 508.779 395.872 515.576 404.959 515.576V514.576V513.576C396.91 513.576 388.365 507.521 379.359 494.723L378.541 495.298ZM404.959 514.576V515.576C406.253 515.576 408.118 515.321 410.51 514.843L410.314 513.862L410.118 512.881C407.751 513.355 406.046 513.576 404.959 513.576V514.576ZM644.729 336.076V335.076H643.729V336.076H644.729ZM720.413 336.076H721.413V335.076H720.413V336.076ZM720.413 338.218L721.324 338.631L721.413 338.434V338.218H720.413ZM632.948 531.355V532.355H633.593L633.859 531.768L632.948 531.355ZM629.021 531.355L628.097 531.736L628.352 532.355H629.021V531.355ZM584.753 423.898L585.678 423.517L585.423 422.898H584.753V423.898ZM582.254 423.898V422.898H581.568L581.321 423.538L582.254 423.898ZM540.842 531.355V532.355H541.529L541.775 531.715L540.842 531.355ZM536.915 531.355L536.01 531.78L536.28 532.355H536.915V531.355ZM446.237 338.218H445.237V338.441L445.332 338.643L446.237 338.218ZM446.237 336.076V335.076H445.237V336.076H446.237ZM533.345 336.076H534.345V335.076H533.345V336.076ZM533.345 338.218L534.011 338.965L534.345 338.666V338.218H533.345ZM516.923 352.855L516.258 352.108L515.71 352.597L516.011 353.266L516.923 352.855ZM562.262 453.529L561.35 453.94L561.616 454.529H562.262V453.529ZM564.404 453.529V454.529H565.131L565.356 453.837L564.404 453.529ZM568.688 440.32L569.64 440.629L569.654 440.584L569.664 440.539L568.688 440.32ZM541.913 338.218H540.913V338.673L541.256 338.972L541.913 338.218ZM541.913 336.076V335.076H540.913V336.076H541.913ZM636.518 336.076H637.518V335.076H636.518V336.076ZM636.518 338.218L637.184 338.965L637.518 338.666V338.218H636.518ZM620.096 352.855L619.431 352.108L618.909 352.574L619.167 353.224L620.096 352.855ZM660.08 453.529L659.151 453.898L659.401 454.529H660.08V453.529ZM662.222 453.529V454.529H662.949L663.174 453.837L662.222 453.529ZM666.506 440.32L665.566 439.98L665.56 439.996L665.555 440.012L666.506 440.32ZM664.721 372.49L663.773 372.806L663.774 372.812L664.721 372.49ZM644.729 338.218H643.729V338.603L643.988 338.889L644.729 338.218ZM644.729 336.076V337.076H720.413V336.076V335.076H644.729V336.076ZM720.413 336.076H719.413V338.218H720.413H721.413V336.076H720.413ZM720.413 338.218L719.502 337.805L632.037 530.942L632.948 531.355L633.859 531.768L721.324 338.631L720.413 338.218ZM632.948 531.355V530.355H629.021V531.355V532.355H632.948V531.355ZM629.021 531.355L629.946 530.974L585.678 423.517L584.753 423.898L583.829 424.279L628.097 531.736L629.021 531.355ZM584.753 423.898V422.898H582.254V423.898V424.898H584.753V423.898ZM582.254 423.898L581.321 423.538L539.909 530.995L540.842 531.355L541.775 531.715L583.187 424.258L582.254 423.898ZM540.842 531.355V530.355H536.915V531.355V532.355H540.842V531.355ZM536.915 531.355L537.82 530.93L447.142 337.793L446.237 338.218L445.332 338.643L536.01 531.78L536.915 531.355ZM446.237 338.218H447.237V336.076H446.237H445.237V338.218H446.237ZM446.237 336.076V337.076H533.345V336.076V335.076H446.237V336.076ZM533.345 336.076H532.345V338.218H533.345H534.345V336.076H533.345ZM533.345 338.218L532.68 337.471L516.258 352.108L516.923 352.855L517.589 353.602L534.011 338.965L533.345 338.218ZM516.923 352.855L516.011 353.266L561.35 453.94L562.262 453.529L563.174 453.118L517.835 352.444L516.923 352.855ZM562.262 453.529V454.529H564.404V453.529V452.529H562.262V453.529ZM564.404 453.529L565.356 453.837L569.64 440.629L568.688 440.32L567.737 440.012L563.453 453.22L564.404 453.529ZM568.688 440.32L569.664 440.539C572.295 428.819 573.615 417.915 573.615 407.833H572.615H571.615C571.615 417.743 570.317 428.497 567.713 440.101L568.688 440.32ZM572.615 407.833H573.615C573.615 379.001 563.269 355.515 542.571 337.464L541.913 338.218L541.256 338.972C561.494 356.621 571.615 379.545 571.615 407.833H572.615ZM541.913 338.218H542.913V336.076H541.913H540.913V338.218H541.913ZM541.913 336.076V337.076H636.518V336.076V335.076H541.913V336.076ZM636.518 336.076H635.518V338.218H636.518H637.518V336.076H636.518ZM636.518 338.218L635.853 337.471L619.431 352.108L620.096 352.855L620.762 353.602L637.184 338.965L636.518 338.218ZM620.096 352.855L619.167 353.224L659.151 453.898L660.08 453.529L661.01 453.16L621.026 352.486L620.096 352.855ZM660.08 453.529V454.529H662.222V453.529V452.529H660.08V453.529ZM662.222 453.529L663.174 453.837L667.458 440.629L666.506 440.32L665.555 440.012L661.271 453.22L662.222 453.529ZM666.506 440.32L667.447 440.66C670.588 431.961 672.147 421.965 672.147 410.689H671.147H670.147C670.147 421.785 668.613 431.543 665.566 439.98L666.506 440.32ZM671.147 410.689H672.147C672.147 397.724 669.986 384.882 665.668 372.168L664.721 372.49L663.774 372.812C668.025 385.326 670.147 397.95 670.147 410.689H671.147ZM664.721 372.49L665.67 372.174C661.342 359.191 654.608 347.646 645.471 337.547L644.729 338.218L643.988 338.889C652.938 348.782 659.532 360.085 663.773 372.806L664.721 372.49ZM644.729 338.218H645.729V336.076H644.729H643.729V338.218H644.729Z" fill="#1E1E1E" mask="url(#path-1-outside-1_235_18)"/>
<defs>
<linearGradient id="paint0_linear_235_18" x1="367.999" y1="268.391" x2="631.5" y2="801" gradientUnits="userSpaceOnUse">
<stop stop-color="#004225"/>
<stop offset="1" stop-color="#45AE80"/>
</linearGradient>
</defs>
</svg>
